# xmcd
#
# Track frame offsets:
# 150
# 23092
# 41603
# 65562
# 85114
# 119193
# 147783
# 200018
# 219860
# 234072
# 248494
# 270443
# 307288
#
# Disc length: 4350 seconds
#
#
# Revision: 0
# Processed by: cddbd v1.5.1PL2 Copyright (c) Steve Scherf et al.
# Submitted via: FreeRIP 2.945 
#
DISCID=b310fc0d
DTITLE=LIGHTHOUSE FAMILY - Relaxed and Remixed
DYEAR=2003
DGENRE=Pop
TTITLE0=Lost In Space (Itaal Shur압 Full Mix)
TTITLE1=High (Acoustic version)
TTITLE2=Goodbye Heartbreak (Linslee Main Mix)
TTITLE3=Postcard From Heaven (7" Mix)
TTITLE4=(I Wish I Knew...) Free/One (Phats앑Small)
TTITLE5=Question Of Faith (Tee압 Freeze Mix)
TTITLE6=High (Vocal 12")
TTITLE7=From A Desert To A Beach
TTITLE8=Ocean Drive (Acoustic version)
TTITLE9=Lifted (Acoustic version)
TTITLE10=Run (D알nfluence Vocal Mix)
TTITLE11=Raincloud (Basement Boys Paradox Vocal)
TTITLE12=Ocean Drive (MindSpell압 Miami Beach Exp.)
EXTD=commentary by Thanapong Kongtana
EXTT0=
EXTT1=
EXTT2=
EXTT3=
EXTT4=
EXTT5=
EXTT6=
EXTT7=
EXTT8=
EXTT9=
EXTT10=
EXTT11=
EXTT12=
PLAYORDER=
